<svg width="230" height="82" viewBox="0 0 230 82" fill="none" xmlns="http://www.w3.org/2000/svg">
<g clip-path="url(#clip0_3_75)">
<path d="M1.4802 81.9999C0.4934 81.9999 0 81.409 0 80.227C0 79.2666 0.4934 78.7864 1.4802 78.7864C4.74423 78.7864 6.98349 78.3063 8.19802 77.3459C9.41255 76.3117 10.0198 74.5387 10.0198 72.027V11.3026C10.0198 9.16029 9.52641 7.53507 8.5396 6.42697C7.5528 5.24498 5.4274 4.65399 2.16337 4.65399C1.02475 4.65399 0.455446 4.13687 0.455446 3.10264C0.455446 2.06841 1.02475 1.55129 2.16337 1.55129C2.467 1.55129 3.22607 1.58823 4.44059 1.6621C5.65512 1.6621 7.05941 1.6621 8.65347 1.6621C10.2475 1.6621 11.8037 1.69904 13.3218 1.77291C14.8399 1.77291 16.0545 1.77291 16.9653 1.77291C17.8762 1.77291 19.0908 1.77291 20.6089 1.77291C22.127 1.69904 23.6832 1.6621 25.2772 1.6621C26.8713 1.6621 28.2755 1.6621 29.4901 1.6621C30.7047 1.58823 31.4637 1.55129 31.7673 1.55129C32.83 1.55129 33.3614 2.06841 33.3614 3.10264C33.3614 4.13687 32.83 4.65399 31.7673 4.65399C28.5033 4.65399 26.3779 5.24498 25.3911 6.42697C24.4043 7.53507 23.9109 9.16029 23.9109 11.3026V38.1189C23.9109 39.8179 24.5561 40.0026 25.8465 38.6729C26.3779 38.1558 27.3647 37.1955 28.8069 35.7918C30.2492 34.3882 31.9191 32.763 33.8168 30.9162C35.7146 28.9955 37.6122 27.0747 39.5099 25.154C41.4835 23.1594 43.2294 21.3495 44.7475 19.7243C46.3416 18.0252 47.5181 16.6955 48.2772 15.7351C49.3399 14.2576 50.2129 13.0017 50.896 11.9675C51.6552 10.8594 52.0347 9.82516 52.0347 8.86481C52.0347 7.83056 51.4654 6.87021 50.3267 5.98372C49.2641 5.09724 47.7458 4.65399 45.7723 4.65399C44.7854 4.65399 44.2921 4.13687 44.2921 3.10264C44.2921 2.06841 44.7854 1.55129 45.7723 1.55129C46.6072 1.55129 48.1634 1.58823 50.4406 1.6621C52.7178 1.73597 55.83 1.77291 59.7772 1.77291C63.5726 1.77291 66.6089 1.73597 68.8861 1.6621C71.2393 1.58823 72.7953 1.55129 73.5545 1.55129C74.6931 1.55129 75.2624 2.06841 75.2624 3.10264C75.2624 4.13687 74.6931 4.65399 73.5545 4.65399C71.8845 4.65399 69.797 5.31886 67.2921 6.64859C64.8631 7.90444 62.3581 9.49273 59.7772 11.4135C57.1963 13.3341 54.8052 15.3287 52.604 17.3972C51.6931 18.2837 50.3647 19.5766 48.6188 21.2756C46.9488 22.9747 44.7854 25.1171 42.1287 27.7026C40.9901 28.8108 40.8762 30.0666 41.7871 31.4702C42.3185 32.2828 43.3433 33.982 44.8614 36.5675C46.3795 39.1531 48.1255 42.182 50.099 45.654C52.0726 49.0522 54.0842 52.5243 56.1337 56.0702C58.1832 59.6162 60.0429 62.8666 61.7129 65.8216C63.3829 68.7026 64.6733 70.8449 65.5842 72.2486C66.9505 74.3171 68.0512 75.8314 68.8861 76.7918C69.797 77.6783 70.7079 78.2324 71.6188 78.454C72.5297 78.6756 73.6683 78.7864 75.0347 78.7864C76.0973 78.7864 76.6287 79.2666 76.6287 80.227C76.6287 81.409 76.0973 81.9999 75.0347 81.9999C74.2755 81.9999 72.7195 81.963 70.3663 81.8891C68.0132 81.7414 64.901 81.6675 61.0297 81.6675C58.8284 81.6675 56.627 81.7044 54.4257 81.7783C52.3003 81.7783 50.4406 81.8152 48.8465 81.8891C47.3284 81.963 46.3037 81.9999 45.7723 81.9999C44.7854 81.9999 44.2921 81.409 44.2921 80.227C44.2921 79.2666 44.7854 78.7864 45.7723 78.7864C49.4918 78.7864 51.3515 78.0847 51.3515 76.681C51.3515 76.4594 51.1238 75.9423 50.6683 75.1297C50.2888 74.2432 49.7953 73.209 49.1881 72.027C48.6567 71.0666 47.8218 69.5891 46.6832 67.5945C45.6205 65.526 44.4059 63.236 43.0396 60.7243C41.6733 58.2125 40.269 55.7009 38.8267 53.1891C37.4604 50.6036 36.2458 48.3135 35.1832 46.3189C34.1205 44.3243 33.3614 42.8837 32.9059 41.9972C32.1468 40.5198 31.4257 39.781 30.7426 39.781C30.0594 39.7071 29.3003 40.1135 28.4653 40.9999C27.7062 41.7387 27.175 42.2558 26.8713 42.5513C26.6436 42.8468 26.4538 43.0684 26.302 43.2162C26.226 43.3639 25.9604 43.6594 25.505 44.1026C24.8218 44.7675 24.3663 45.5063 24.1386 46.3189C23.9868 47.1314 23.9109 47.9071 23.9109 48.6459V72.027C23.9109 74.3909 24.4423 76.127 25.505 77.2351C26.6436 78.2693 28.9208 78.7864 32.3366 78.7864C32.7921 78.7864 33.1716 78.9341 33.4753 79.2297C33.7789 79.5252 33.9307 79.8576 33.9307 80.227C33.9307 81.409 33.3993 81.9999 32.3366 81.9999C31.9571 81.9999 31.1221 81.9999 29.8317 81.9999C28.5413 81.926 27.0611 81.8891 25.3911 81.8891C23.797 81.8152 22.203 81.7783 20.6089 81.7783C19.0908 81.7044 17.8762 81.6675 16.9653 81.6675C16.0545 81.6675 14.802 81.7044 13.2079 81.7783C11.6898 81.7783 10.0957 81.8152 8.42574 81.8891C6.75577 81.8891 5.27557 81.926 3.98515 81.9999C2.69472 81.9999 1.85973 81.9999 1.4802 81.9999ZM92.3665 81.9999C91.3797 81.9999 90.8863 81.409 90.8863 80.227C90.8863 79.8576 91.0002 79.5252 91.2279 79.2297C91.4556 78.9341 91.8351 78.7864 92.3665 78.7864C96.3896 78.7864 99.3879 78.2693 101.362 77.2351C103.411 76.2009 104.436 74.4279 104.436 71.9162V70.3648C104.436 69.9216 104.36 69.626 104.208 69.4783C104.056 69.3306 103.525 69.2198 102.614 69.1459C98.1354 68.8504 93.8087 68.1486 89.6338 67.0405C85.5348 65.8585 81.8532 64.1594 78.5893 61.9432C75.3252 59.727 72.7443 56.9567 70.8467 53.6324C68.949 50.3081 68.0002 46.3189 68.0002 41.6648C68.0002 35.7549 69.5183 30.9162 72.5546 27.1486C75.6668 23.381 79.8418 20.463 85.0794 18.3945C90.3929 16.326 96.3137 14.9963 102.842 14.4053C103.449 14.2576 103.867 14.1098 104.094 13.9621C104.322 13.7405 104.436 13.3712 104.436 12.854V11.5243C104.436 9.01255 103.411 7.23958 101.362 6.20535C99.3879 5.17112 96.3896 4.65399 92.3665 4.65399C91.3797 4.65399 90.8863 4.17381 90.8863 3.21345C90.8863 2.10535 91.3797 1.55129 92.3665 1.55129C93.581 1.55129 95.2889 1.58823 97.4903 1.6621C99.7675 1.73597 102.121 1.80985 104.55 1.88372C106.979 1.88372 109.142 1.88372 111.04 1.88372C113.013 1.88372 115.215 1.88372 117.644 1.88372C120.149 1.80985 122.54 1.73597 124.817 1.6621C127.094 1.58823 128.84 1.55129 130.055 1.55129C131.042 1.55129 131.535 2.10535 131.535 3.21345C131.535 4.17381 131.042 4.65399 130.055 4.65399C126.032 4.65399 122.995 5.17112 120.946 6.20535C118.896 7.16571 117.872 8.93868 117.872 11.5243V12.854C117.872 13.5189 117.985 13.9252 118.213 14.0729C118.517 14.1468 118.896 14.2576 119.352 14.4053C125.879 14.9963 131.763 16.326 137 18.3945C142.314 20.463 146.488 23.381 149.525 27.1486C152.637 30.9162 154.193 35.7549 154.193 41.6648C154.193 47.5747 152.637 52.4874 149.525 56.4026C146.413 60.2441 142.2 63.199 136.886 65.2675C131.649 67.336 125.766 68.6287 119.238 69.1459C118.555 69.2198 118.137 69.3675 117.985 69.5891C117.909 69.7368 117.872 69.9955 117.872 70.3648V71.9162C117.872 74.5017 118.896 76.3117 120.946 77.3459C122.995 78.3063 126.032 78.7864 130.055 78.7864C130.434 78.7864 130.775 78.9341 131.08 79.2297C131.384 79.5252 131.535 79.8576 131.535 80.227C131.535 81.409 131.042 81.9999 130.055 81.9999C128.84 81.9999 127.094 81.963 124.817 81.8891C122.54 81.8152 120.149 81.7414 117.644 81.6675C115.215 81.5936 113.013 81.5567 111.04 81.5567C109.142 81.5567 106.979 81.5936 104.55 81.6675C102.121 81.7414 99.7675 81.8152 97.4903 81.8891C95.2889 81.963 93.581 81.9999 92.3665 81.9999ZM102.045 65.0459C103.335 65.1198 104.056 65.0459 104.208 64.8243C104.36 64.6766 104.436 64.2333 104.436 63.4945V19.9459C104.436 19.3549 104.322 18.9117 104.094 18.6162C103.942 18.3206 103.335 18.2468 102.272 18.3945C96.8071 19.2071 92.4424 21.3864 89.1784 24.9324C85.9143 28.4044 84.2824 33.982 84.2824 41.6648C84.2824 48.8306 85.8005 54.4449 88.8368 58.508C91.873 62.5711 96.2757 64.7504 102.045 65.0459ZM119.921 65.0459C123.488 64.4549 126.601 63.3468 129.258 61.7216C131.99 60.0225 134.116 57.5847 135.634 54.4081C137.152 51.1576 137.911 46.9098 137.911 41.6648C137.911 33.982 136.28 28.3675 133.015 24.8216C129.827 21.2756 125.31 19.0963 119.466 18.2837C118.706 18.136 118.251 18.2468 118.099 18.6162C117.948 18.9855 117.872 19.4287 117.872 19.9459V63.4945C117.872 64.2333 117.948 64.7135 118.099 64.9351C118.327 65.1567 118.934 65.1936 119.921 65.0459ZM147.605 81.9999C146.618 81.9999 146.125 81.5198 146.125 80.5594C146.125 79.4513 146.618 78.8972 147.605 78.8972C150.262 78.8972 152.35 78.454 153.868 77.5675C155.386 76.681 156.752 74.945 157.967 72.3594C158.498 71.3252 159.333 69.4044 160.472 66.5972C161.61 63.7901 162.939 60.4657 164.457 56.6243C166.051 52.709 167.721 48.572 169.467 44.2135C171.212 39.781 172.92 35.3855 174.59 31.027C176.336 26.6684 177.93 22.6053 179.373 18.8378C180.815 15.0702 182.029 11.8936 183.016 9.30805C184.003 6.72246 184.648 5.02336 184.952 4.21075C185.484 2.73327 185.939 1.69904 186.318 1.10805C186.697 0.517055 187.722 0.221558 189.392 0.221558C190.91 0.221558 191.935 0.517055 192.467 1.10805C193.074 1.69904 193.643 2.69633 194.175 4.09994C194.554 5.06029 195.313 7.09183 196.452 10.1945C197.591 13.2233 198.957 16.9171 200.551 21.2756C202.221 25.5603 203.967 30.1405 205.789 35.0162C207.687 39.8918 209.508 44.6567 211.254 49.3108C212.999 53.8909 214.556 57.9909 215.922 61.6108C217.365 65.2306 218.427 67.9639 219.11 69.8108C220.4 72.9874 221.805 75.3144 223.323 76.7918C224.841 78.1955 226.321 78.8972 227.764 78.8972C228.902 78.8972 229.472 79.4513 229.472 80.5594C229.472 81.5198 228.902 81.9999 227.764 81.9999C227.081 81.9999 225.524 81.9999 223.095 81.9999C220.667 81.926 217.554 81.8891 213.759 81.8891C210.494 81.8891 207.383 81.926 204.422 81.9999C201.462 81.9999 199.602 81.9999 198.843 81.9999C197.781 81.9999 197.249 81.5198 197.249 80.5594C197.249 79.4513 197.781 78.8972 198.843 78.8972C201.272 78.8972 203.093 78.4171 204.308 77.4567C205.523 76.4225 205.712 74.6864 204.878 72.2486C204.346 70.5495 203.511 68.1117 202.373 64.9351C201.234 61.6847 199.944 58.0279 198.501 53.9648C197.135 49.8279 195.692 45.654 194.175 41.4432C192.732 37.2324 191.366 33.2801 190.076 29.5864C188.861 25.8928 187.836 22.827 187.001 20.3891C186.167 17.9513 185.673 16.5108 185.521 16.0675C185.445 15.6982 185.256 15.5135 184.952 15.5135C184.724 15.4395 184.534 15.5504 184.383 15.8459C184.155 16.5108 183.586 18.0621 182.675 20.4999C181.764 22.8639 180.663 25.708 179.373 29.0324C178.083 32.2828 176.791 35.6071 175.501 39.0053C174.211 42.4036 173.034 45.5063 171.972 48.3135C170.909 51.0468 170.15 53.0414 169.694 54.2972C168.252 58.2864 167.038 61.7955 166.051 64.8243C165.064 67.8531 164.571 70.3279 164.571 72.2486C164.571 74.9081 165.254 76.681 166.62 77.5675C168.063 78.454 169.96 78.8972 172.313 78.8972C173.376 78.8972 173.907 79.4513 173.907 80.5594C173.907 81.5198 173.376 81.9999 172.313 81.9999C171.63 81.9999 170.226 81.9999 168.1 81.9999C165.975 81.926 163.242 81.8891 159.902 81.8891C157.093 81.8891 154.551 81.926 152.274 81.9999C149.996 81.9999 148.44 81.9999 147.605 81.9999Z" fill="url(#paint0_radial_3_75)"/>
<g clip-path="url(#clip1_3_75)">
<path d="M219 1.98086C221.939 1.98086 222.287 1.99375 223.443 2.04531C224.517 2.09258 225.097 2.27305 225.484 2.42344C225.995 2.62109 226.365 2.86172 226.747 3.24414C227.134 3.63086 227.37 3.99609 227.568 4.50742C227.718 4.89414 227.899 5.47852 227.946 6.54844C227.998 7.70859 228.011 8.05664 228.011 10.9914C228.011 13.9305 227.998 14.2785 227.946 15.4344C227.899 16.5086 227.718 17.0887 227.568 17.4754C227.37 17.9867 227.13 18.3563 226.747 18.7387C226.361 19.1254 225.995 19.3617 225.484 19.5594C225.097 19.7098 224.513 19.8902 223.443 19.9375C222.283 19.9891 221.935 20.002 219 20.002C216.061 20.002 215.713 19.9891 214.557 19.9375C213.483 19.8902 212.903 19.7098 212.516 19.5594C212.005 19.3617 211.635 19.1211 211.253 18.7387C210.866 18.352 210.63 17.9867 210.432 17.4754C210.282 17.0887 210.101 16.5043 210.054 15.4344C210.002 14.2742 209.989 13.9262 209.989 10.9914C209.989 8.05234 210.002 7.7043 210.054 6.54844C210.101 5.47422 210.282 4.89414 210.432 4.50742C210.63 3.99609 210.87 3.62656 211.253 3.24414C211.639 2.85742 212.005 2.62109 212.516 2.42344C212.903 2.27305 213.487 2.09258 214.557 2.04531C215.713 1.99375 216.061 1.98086 219 1.98086ZM219 0C216.014 0 215.64 0.0128906 214.467 0.0644531C213.298 0.116016 212.495 0.305078 211.798 0.575781C211.072 0.859375 210.458 1.2332 209.848 1.84766C209.233 2.45781 208.859 3.07227 208.576 3.79414C208.305 4.49453 208.116 5.29375 208.064 6.4625C208.013 7.63984 208 8.01367 208 11C208 13.9863 208.013 14.3602 208.064 15.5332C208.116 16.702 208.305 17.5055 208.576 18.2016C208.859 18.9277 209.233 19.5422 209.848 20.1523C210.458 20.7625 211.072 21.1406 211.794 21.4199C212.495 21.6906 213.294 21.8797 214.463 21.9312C215.636 21.9828 216.009 21.9957 218.996 21.9957C221.982 21.9957 222.356 21.9828 223.529 21.9312C224.698 21.8797 225.501 21.6906 226.197 21.4199C226.919 21.1406 227.534 20.7625 228.144 20.1523C228.754 19.5422 229.132 18.9277 229.411 18.2059C229.682 17.5055 229.871 16.7063 229.923 15.5375C229.974 14.3645 229.987 13.9906 229.987 11.0043C229.987 8.01797 229.974 7.64414 229.923 6.47109C229.871 5.30234 229.682 4.49883 229.411 3.80273C229.141 3.07227 228.767 2.45781 228.152 1.84766C227.542 1.2375 226.928 0.859375 226.206 0.580078C225.505 0.309375 224.706 0.120313 223.538 0.06875C222.36 0.0128906 221.986 0 219 0Z" fill="url(#paint1_radial_3_75)"/>
<path d="M219 5.34961C215.88 5.34961 213.35 7.88047 213.35 11C213.35 14.1195 215.88 16.6504 219 16.6504C222.12 16.6504 224.65 14.1195 224.65 11C224.65 7.88047 222.12 5.34961 219 5.34961ZM219 14.6652C216.976 14.6652 215.335 13.0238 215.335 11C215.335 8.97617 216.976 7.33477 219 7.33477C221.024 7.33477 222.665 8.97617 222.665 11C222.665 13.0238 221.024 14.6652 219 14.6652Z" fill="url(#paint2_radial_3_75)"/>
<path d="M226.193 5.12615C226.193 5.85662 225.6 6.44529 224.874 6.44529C224.143 6.44529 223.555 5.85232 223.555 5.12615C223.555 4.39568 224.148 3.80701 224.874 3.80701C225.6 3.80701 226.193 4.39998 226.193 5.12615Z" fill="url(#paint3_radial_3_75)"/>
</g>
</g>
<defs>
<radialGradient id="paint0_radial_3_75" cx="0" cy="0" r="1" gradientUnits="userSpaceOnUse" gradientTransform="translate(114.443 216.348) rotate(-57.1603) scale(193.247 194.405)">
<stop stop-color="#473017"/>
<stop offset="1" stop-color="#ECC06B"/>
</radialGradient>
<radialGradient id="paint1_radial_3_75" cx="0" cy="0" r="1" gradientUnits="userSpaceOnUse" gradientTransform="translate(218.973 47.3437) rotate(-73.0485) scale(33.6929 20.7473)">
<stop stop-color="#473017"/>
<stop offset="1" stop-color="#E4C08A"/>
</radialGradient>
<radialGradient id="paint2_radial_3_75" cx="0" cy="0" r="1" gradientUnits="userSpaceOnUse" gradientTransform="translate(218.99 29.6735) rotate(-73.0422) scale(17.3111 10.6632)">
<stop stop-color="#473017"/>
<stop offset="1" stop-color="#E4C08A"/>
</radialGradient>
<radialGradient id="paint3_radial_3_75" cx="0" cy="0" r="1" gradientUnits="userSpaceOnUse" gradientTransform="translate(224.871 9.48567) rotate(-73.0422) scale(4.04144 2.48943)">
<stop stop-color="#473017"/>
<stop offset="1" stop-color="#E4C08A"/>
</radialGradient>
<clipPath id="clip0_3_75">
<rect width="230" height="82" fill="white"/>
</clipPath>
<clipPath id="clip1_3_75">
<rect width="22" height="22" fill="white" transform="translate(208)"/>
</clipPath>
</defs>
</svg>
